<?xml version="1.0" encoding="iso-8859-1"?>
<!-- Generator: Adobe Illustrator 19.0.0, SVG Export Plug-In . SVG Version: 6.00 Build 0)  -->
<svg version="1.1" id="Layer_1" xmlns="http://www.w3.org/2000/svg" xmlns:xlink="http://www.w3.org/1999/xlink" x="0px" y="0px"
	 viewBox="0 0 511.999 511.999" style="enable-background:new 0 0 511.999 511.999;" xml:space="preserve">
<path style="fill:#D9D9DB;" d="M432.48,351.12H79.52c-22.563,0-40.853-18.29-40.853-40.853l0,0h434.666l0,0
	C473.333,332.829,455.043,351.12,432.48,351.12z"/>
<path style="fill:#F9DE8F;" d="M409.97,157.644H102.03c-17.147,0-31.047,13.9-31.047,31.048v121.576h370.034V188.692
	C441.017,171.544,427.117,157.644,409.97,157.644z"/>
<path style="fill:#F7CF6D;" d="M409.97,157.644h-43.161c17.147,0,31.048,13.9,31.048,31.048v121.576h43.161V188.692
	C441.017,171.544,427.117,157.644,409.97,157.644z"/>
<path style="fill:#F09EA0;" d="M409.986,157.644H102.046c-17.147,0-31.047,13.9-31.047,31.048v48.705
	c20.601-0.487,20.285-26.262,39.917-26.372c19.7-0.109,27.077,30.644,47.243,30.701c20.294,0.058,28.079-31.048,49.145-31.227
	c20.554-0.176,28.251,29.3,49.476,29.281c21.035-0.018,29.742-28.98,49.161-28.413c19.029,0.557,23.715,28.759,42.752,29.318
	c19.553,0.574,28.961-28.769,49.162-28.413c19.873,0.35,23.821,30.352,43.18,30.648v-54.228
	C441.033,171.544,427.133,157.644,409.986,157.644z"/>
<path style="fill:#E1E1E3;" d="M65.139,310.268H38.667c0,22.563,18.29,40.853,40.853,40.853h26.472
	C83.429,351.12,65.139,332.829,65.139,310.268z"/>
<path style="fill:#C8C6CD;" d="M430.172,310.268c0,22.563-18.29,40.853-40.853,40.853h43.161c22.563,0,40.853-18.29,40.853-40.853
	H430.172z"/>
<path style="fill:#EF8990;" d="M409.986,157.644h-43.161c17.147,0,31.048,13.9,31.048,31.048v23.581
	c19.857,0.368,23.808,30.351,43.161,30.647v-54.228C441.033,171.544,427.133,157.644,409.986,157.644z"/>
<path style="fill:#D9D9DB;" d="M276.108,157.644h-40.216V80.067c0-2.328,1.888-4.216,4.216-4.216h31.783
	c2.328,0,4.216,1.888,4.216,4.216v77.577H276.108z"/>
<path style="fill:#F88A5A;" d="M272.869,36.249c0,9.317-7.553,16.87-16.87,16.87c-9.317,0-16.87-7.553-16.87-16.87
	s16.87-27.616,16.87-27.616S272.869,26.932,272.869,36.249z"/>
<rect x="238.355" y="351.116" style="fill:#C8C6CD;" width="35.283" height="67.343"/>
<path style="fill:#D9D9DB;" d="M334.386,503.368H177.612v-22.023c0-34.726,28.15-62.876,62.877-62.876h31.021
	c34.726,0,62.877,28.15,62.877,62.876V503.368z"/>
<g>
	<path style="fill:#E1E1E3;" d="M259.48,418.469h-18.991c-34.726,0-62.877,28.15-62.877,62.876v22.023h18.991v-22.023
		C196.603,446.619,224.755,418.469,259.48,418.469z"/>
	<path style="fill:#E1E1E3;" d="M259.624,418.469h-11.235c-20.544,0-37.197,28.15-37.197,62.876v22.023h11.235v-22.023
		C222.428,446.619,239.081,418.469,259.624,418.469z"/>
</g>
<path style="fill:#C8C6CD;" d="M271.51,418.469h-24.554c34.726,0,62.876,28.15,62.876,62.876v22.023h24.554v-22.023
	C334.386,446.619,306.236,418.469,271.51,418.469z"/>
<path d="M473.333,301.634H449.65V188.691c0-21.879-17.8-39.68-39.68-39.68H244.524V86.416h22.952v35.704
	c0,4.767,3.865,8.632,8.632,8.632s8.632-3.865,8.632-8.632V77.784c0-4.767-3.865-8.632-8.632-8.632h-11.476v-8.907
	c9.826-3.546,16.87-12.962,16.87-23.995c0-11.452-13.396-27.219-19.156-33.467C260.713,1.008,258.411,0,255.999,0
	c-2.411,0-4.712,1.008-6.346,2.782c-5.759,6.247-19.156,22.015-19.156,33.467c0,11.033,7.044,20.45,16.87,23.995v8.907h-11.476
	c-4.767,0-8.632,3.865-8.632,8.632v71.228H102.03c-21.88,0-39.68,17.8-39.68,39.68v82.865c0,4.767,3.865,8.632,8.632,8.632
	c4.767,0,8.632-3.865,8.632-8.632v-82.867c0-12.359,10.055-22.415,22.415-22.415H409.97c12.36,0,22.415,10.055,22.415,22.415
	v112.944H70.983H38.667c-4.767,0-8.632,3.865-8.632,8.632c0,27.286,22.199,49.485,49.485,49.485h150.207v50.895
	c-34.342,5.206-60.746,34.925-60.746,70.697v22.023c0,4.767,3.865,8.632,8.632,8.632h156.774c4.767,0,8.632-3.865,8.632-8.632
	v-22.023c0-35.772-26.404-65.492-60.746-70.697v-50.895h150.207c27.286,0,49.485-22.199,49.485-49.485
	C481.965,305.499,478.1,301.634,473.333,301.634z M255.999,22.062c4.645,6.069,8.116,11.887,8.238,14.202
	c-0.008,4.535-3.7,8.223-8.238,8.223c-4.542,0-8.238-3.696-8.239-8.214C247.876,33.962,251.349,28.138,255.999,22.062z
	 M265.009,409.836h-18.017v-48.26h18.017V409.836z M325.754,481.345v13.39H186.245v-13.39c0-29.91,24.334-54.244,54.244-54.244
	h31.021C301.42,427.101,325.754,451.435,325.754,481.345z M432.48,342.487H79.52c-14.777,0-27.264-10-31.046-23.588h22.51h370.034
	h22.51C459.743,332.487,447.258,342.487,432.48,342.487z"/>
<path d="M104.056,218.942c5.924,0,10.735,4.931,17.938,13.036c7.569,8.516,16.988,19.114,31.465,19.156c0.029,0,0.058,0,0.086,0
	c14.34,0,23.521-10.053,31.623-18.923c6.741-7.381,12.564-13.756,19.92-13.82c0.039,0,0.076,0,0.115,0
	c6.493,0,11.581,4.744,19.16,12.535c8.286,8.516,17.677,18.168,32.506,18.168c0.01,0,0.021,0,0.03,0
	c14.715-0.014,24.723-9.938,32.764-17.911c7.573-7.51,12.609-12.028,18.524-11.885c5.768,0.168,9.837,4.758,16.001,12.231
	c6.651,8.065,14.929,18.102,28.825,18.51c13.873,0.429,23.356-8.933,31.713-17.173c6.861-6.765,12.795-12.618,19.72-12.618
	c0.073,0,0.144,0,0.216,0.002c0.052,0,0.104,0.001,0.155,0.001c4.697,0,8.545-3.765,8.629-8.48c0.084-4.767-3.713-8.699-8.479-8.783
	c-0.186-0.002-0.371-0.005-0.555-0.005c-13.969,0-23.441,9.339-31.807,17.59c-6.748,6.654-12.585,12.373-19.084,12.208
	c-5.773-0.169-9.845-4.76-16.012-12.237c-6.649-8.064-14.925-18.098-28.816-18.504c-13.743-0.428-23.015,8.781-31.186,16.882
	c-6.979,6.921-13.007,12.899-20.622,12.906c-0.005,0-0.008,0-0.013,0c-7.54,0-13.378-5.999-20.135-12.944
	c-8.103-8.328-17.28-17.761-31.519-17.761c-0.092,0-0.184,0-0.276,0.001c-14.882,0.127-24.253,10.388-32.521,19.44
	c-7.57,8.288-12.596,13.371-18.913,13.302c-6.298-0.017-11.231-5.059-18.609-13.359c-7.846-8.829-16.736-18.832-30.832-18.832
	c-0.055,0-0.112,0-0.167,0c-4.767,0.026-8.61,3.913-8.584,8.681c0.026,4.751,3.886,8.584,8.631,8.584
	C103.982,218.943,104.019,218.942,104.056,218.942z"/>
<g>
</g>
<g>
</g>
<g>
</g>
<g>
</g>
<g>
</g>
<g>
</g>
<g>
</g>
<g>
</g>
<g>
</g>
<g>
</g>
<g>
</g>
<g>
</g>
<g>
</g>
<g>
</g>
<g>
</g>
</svg>
